#!OML:ASF H:\Terrain\Patient Classification 1\Terrain2\Thursday\justin.ASF
:FULLY-SPECIFIED
:DEGREES
4189
root 9.57082 19.9508 -8.83838 176.474 0.109536 -176.138
lowerback 5.90761 -2.95984 0.613236
upperback 1.36606 -4.22126 5.3699
thorax -1.52995 -2.28981 5.52022
lowerneck -11.9567 -2.68319 -5.93797
upperneck 41.9122 5.13022 -2.72908
head 17.541 2.68144 1.32742
rclavicle 2.40529e-014 6.36111e-015
rhumerus -43.3147 -17.951 -61.6183
rradius 28.7197
rwrist -5.61991
rhand -19.0797 12.8058
rfingers 7.12502
rthumb 7.22817 -17.0508
lclavicle 2.40529e-014 6.36111e-015
lhumerus -42.7359 18.834 74.6335
lradius 27.7632
lwrist 1.14476
lhand -18.9309 26.1621
lfingers 7.12502
lthumb 7.37188 56.0137
rfemur -15.8995 -7.3507 28.5981
rtibia 46.7568
rfoot -20.0841 -2.21695
rtoes 6.83281
lfemur 5.6503 5.29439 -2.69915
ltibia 99.9399
lfoot -8.13027 -30.6136
ltoes 12.954
4190
root 9.59667 19.9648 -8.97144 176.864 -0.17672 -176.239
lowerback 5.87361 -3.11867 0.205237
upperback 1.08881 -4.43063 5.45366
thorax -1.74217 -2.38112 5.86293
lowerneck -12.0043 -2.76451 -5.81897
upperneck 42.3327 5.13965 -2.71867
head 17.8043 2.72345 1.33388
rclavicle -4.86029e-014 4.29375e-014
rhumerus -43.4581 -18.8879 -61.0767
rradius 29.1226
rwrist -5.85799
rhand -19.1034 13.2151
rfingers 7.12502
rthumb 7.20537 -16.6423
lclavicle -4.86029e-014 4.29375e-014
lhumerus -42.8522 19.3538 74.4336
lradius 26.8792
lwrist 0.225779
lhand -18.2331 27.4396
lfingers 7.12502
lthumb 8.04534 57.2664
rfemur -15.9803 -7.21504 28.5197
rtibia 46.4237
rfoot -20.804 -1.95495
rtoes 10.111
lfemur 5.21228 5.02898 -3.08576
ltibia 100.182
lfoot -6.91719 -29.5774
ltoes 15.1912
4191
root 9.61635 19.9326 -9.08047 177.044 -0.493242 -175.722
lowerback 6.12702 -3.32878 0.424018
upperback 0.77927 -4.6957 5.73373
thorax -2.17105 -2.51544 6.08991
lowerneck -11.8108 -2.79855 -5.86634
upperneck 42.5411 5.20391 -2.72975
head 17.8802 2.76454 1.3573
rclavicle 4.29375e-014 3.49861e-014
rhumerus -43.6753 -19.3037 -60.721
rradius 29.5686
rwrist -6.86576
rhand -19.1643 14.1346
rfingers 7.12502
rthumb 7.14653 -15.7248
lclavicle 4.29375e-014 3.49861e-014
lhumerus -43.1984 19.5177 74.4603
lradius 26.3022
lwrist -0.550376
lhand -17.4485 29.9739
lfingers 7.12502
lthumb 8.80253 59.7703
rfemur -15.1854 -7.41545 29.282
rtibia 45.7158
rfoot -21.7049 -3.32936
rtoes 6.19855
lfemur 4.88943 4.66066 -2.52762
ltibia 100.704
lfoot -5.82488 -28.8721
ltoes 18.4445
4192
root 9.63443 19.9543 -9.2049 177.297 -0.714509 -175.464
lowerback 6.36962 -3.51637 0.477813
upperback 0.415731 -4.92421 5.93242
thorax -2.64756 -2.62237 6.32873
lowerneck -11.542 -2.77627 -5.89416
upperneck 42.5861 5.34704 -2.87201
head 17.8457 2.8225 1.32229
rclavicle -5.41688e-015 -6.99722e-014
rhumerus -43.8987 -19.3499 -60.6497
rradius 30.1716
rwrist -8.36753
rhand -19.5548 13.9962
rfingers 7.12502
rthumb 6.76961 -15.8755
lclavicle -5.41688e-015 -6.99722e-014
lhumerus -43.4433 18.8456 75.0022
lradius 25.8595
lwrist -0.57299
lhand -16.8974 30.6949
lfingers 7.12502
lthumb 9.33435 60.4682
rfemur -14.8377 -7.21163 29.6801
rtibia 44.9571
rfoot -21.961 -3.51547
rtoes 9.5324
lfemur 4.62775 4.50521 -2.41887
ltibia 100.87
lfoot -4.98942 -27.7806
ltoes 17.6781
4193
root 9.64896 19.9846 -9.32325 177.554 -0.882866 -175.248
lowerback 6.46033 -3.62429 0.635989
upperback 0.187906 -5.04349 6.00042
thorax -2.92989 -2.67692 6.34318
lowerneck -11.6452 -2.82345 -5.66106
upperneck 42.9649 5.44618 -3.01533
head 18.1156 2.89876 1.25381
rclavicle -8.87077e-015 -4.77083e-014
rhumerus -44.1298 -19.5023 -60.8403
rradius 30.9801
rwrist -10.1258
rhand -20.4947 13.4378
rfingers 7.12502
rthumb 5.86223 -16.4611
lclavicle -8.87077e-015 -4.77083e-014
lhumerus -43.4346 18.0073 75.4614
lradius 25.5326
lwrist -1.27395
lhand -16.2126 28.4486
lfingers 7.12502
lthumb 9.99503 58.1913
rfemur -14.348 -6.87492 30.031
rtibia 44.0491
rfoot -21.6498 -3.28546
rtoes 14.9116
lfemur 4.35457 4.43051 -2.39106
ltibia 101.073
lfoot -3.88047 -26.7755
ltoes 14.9233
4194
root 9.66293 19.9956 -9.42865 177.71 -1.11542 -174.863
lowerback 6.49901 -3.69547 0.949403
upperback 0.0956388 -5.12279 6.10057
thorax -3.0568 -2.72381 6.28907
lowerneck -11.2952 -2.82948 -5.90452
upperneck 42.6778 5.18188 -2.63564
head 17.8207 2.79918 1.40329
rclavicle -4.37326e-014 2.06736e-014
rhumerus -44.3045 -19.8754 -60.9189
rradius 31.6309
rwrist -11.4453
rhand -21.7989 11.9335
rfingers 7.12502
rthumb 4.603 -17.9964
lclavicle -4.37326e-014 2.06736e-014
lhumerus -43.3849 17.1293 75.9691
lradius 25.4978
lwrist -2.38594
lhand -14.9928 26.0652
lfingers 7.12502
lthumb 11.1717 55.7478
rfemur -13.5809 -6.58911 30.6192
rtibia 43.1566
rfoot -22.4023 -4.56031
rtoes 11.7119
lfemur 3.95688 4.25821 -2.06195
ltibia 101.388
lfoot -2.24274 -25.9761
ltoes 8.86945
4195
root 9.66965 19.9945 -9.52176 177.97 -1.43679 -174.589
lowerback 6.36007 -3.77965 1.18998
upperback 0.00653692 -5.22855 6.18667
thorax -3.07404 -2.78328 6.24643
lowerneck -11.3112 -2.89281 -5.8796
upperneck 42.6916 5.0676 -2.62905
head 17.834 2.75507 1.38197
rclavicle 4.62174e-015 -6.36111e-014
rhumerus -44.4758 -20.2953 -60.878
rradius 32.317
rwrist -12.063
rhand -22.6544 9.45465
rfingers 7.12502
rthumb 3.77686 -20.4916
lclavicle 4.62174e-015 -6.36111e-014
lhumerus -43.3386 16.0023 76.7161
lradius 25.7586
lwrist -3.21632
lhand -13.1476 24.6326
lfingers 7.12502
lthumb 12.9509 54.2107
rfemur -12.8187 -6.59431 31.0975
rtibia 42.3062
rfoot -22.399 -6.12511
rtoes 6.07909
lfemur 3.19183 4.04909 -1.95328
ltibia 101.903
lfoot -0.658426 -24.9931
ltoes 14.2452
4196
root 9.67568 20.0386 -9.62023 178.418 -1.12474 -174.629
lowerback 6.02064 -3.66473 1.08597
upperback 0.00589944 -5.09108 6.1797
thorax -2.88973 -2.71351 6.25512
lowerneck -11.614 -2.77916 -5.49905
upperneck 42.5937 5.05329 -2.63752
head 17.8524 2.77807 1.30358
rclavicle 3.27001e-014 2.54444e-014
rhumerus -44.3517 -20.4951 -61.2135
rradius 33.1231
rwrist -12.9627
rhand -21.7401 9.43783
rfingers 7.12502
rthumb 4.65977 -20.4909
lclavicle 3.27001e-014 2.54444e-014
lhumerus -43.1453 15.0703 77.3383
lradius 26.1868
lwrist -4.0976
lhand -11.587 22.8323
lfingers 7.12502
lthumb 14.455 52.3088
rfemur -12.6434 -5.83059 31.1087
rtibia 41.5257
rfoot -21.9712 -6.29693
rtoes 5.95905
lfemur 2.64308 4.61803 -2.2109
ltibia 102.215
lfoot 0.624156 -23.8014
ltoes 15.6924
4197
root 9.68203 20.0814 -9.7129 178.512 -1.12484 -174.772
lowerback 5.92654 -3.63671 0.826282
upperback 0.191896 -5.07959 6.12889
thorax -2.62761 -2.70822 6.32583
lowerneck -11.8562 -2.76529 -5.29203
upperneck 42.3537 4.89502 -2.71063
head 17.7753 2.69856 1.19198
rclavicle -2.31584e-014 -3.49861e-014
rhumerus -43.9969 -20.4342 -61.8879
rradius 33.826
rwrist -14.3147
rhand -20.3341 11.2935
rfingers 7.12502
rthumb 6.01722 -18.601
lclavicle -2.31584e-014 -3.49861e-014
lhumerus -42.7348 14.105 78.0256
lradius 26.675
lwrist -4.55393
lhand -11.2988 20.6301
lfingers 7.12502
lthumb 14.7326 50.0866
rfemur -12.0678 -5.31126 30.9777
rtibia 40.7337
rfoot -22.968 -8.5676
rtoes -7.4689
lfemur 2.2475 4.84325 -2.533
ltibia 102.643
lfoot 0.408338 -22.2766
ltoes 11.3212
4198
root 9.69265 20.1244 -9.80909 178.47 -1.16697 -174.82
lowerback 5.87271 -3.55883 0.685302
upperback 0.419993 -4.99926 6.08965
thorax -2.36055 -2.67372 6.33922
lowerneck -11.9241 -2.78657 -5.32975
upperneck 41.9832 4.65461 -2.64583
head 17.5684 2.57013 1.16589
rclavicle 4.19436e-014 2.54444e-014
rhumerus -43.8702 -20.6366 -62.2997
rradius 34.4184
rwrist -14.8874
rhand -20.935 11.4145
rfingers 7.12502
rthumb 5.43707 -18.4957
lclavicle 4.19436e-014 2.54444e-014
lhumerus -42.3375 12.9265 78.8059
lradius 27.2179
lwrist -4.53905
lhand -11.4555 19.3114
lfingers 7.12502
lthumb 14.5816 48.7788
rfemur -11.256 -4.89744 30.9567
rtibia 39.8872
rfoot -21.4895 -7.46612
rtoes 0.409723
lfemur 1.79938 4.97163 -2.61336
ltibia 103.241
lfoot -2.00161 -20.0989
ltoes -3.11745
